HIERARCHY
ROOT Hips
{
	OFFSET 0.000000 0.000000 0.000000 
	CHANNELS 6 Xposition Yposition Zposition Yrotation Zrotation Xrotation 
	JOINT Lumbar
	{
		OFFSET 0.000000 0.000000 0.000000 
		CHANNELS 3 Zrotation Xrotation Yrotation
		JOINT Neck
		{
			OFFSET 0.000000 0.445665 0.000000 
			CHANNELS 3 Zrotation Xrotation Yrotation
			End Site
			{
				OFFSET 0.000000 0.227535 0.000000 
			}
		}
		JOINT RightShoulder
		{
			OFFSET 0.019635 0.377685 0.194865 
			CHANNELS 3 Zrotation Xrotation Yrotation
			JOINT RightElbow
			{
				OFFSET 0.000000 -0.243375 0.000000 
				CHANNELS 2 Zrotation Yrotation
				JOINT RightWrist
				{
					OFFSET 0.000000 -0.264825 0.000000 
					CHANNELS 2 Zrotation Xrotation
					End Site
					{
						OFFSET 0.006600 -0.176220 0.000990 
					}
				}
			}
		}
		JOINT LeftShoulder
		{
			OFFSET 0.019635 0.377685 -0.194865 
			CHANNELS 3 Zrotation Xrotation Yrotation
			JOINT LeftElbow
			{
				OFFSET 0.000000 -0.243375 0.000000 
				CHANNELS 2 Zrotation Yrotation
				JOINT LeftWrist
				{
					OFFSET 0.000000 -0.264825 0.000000 
					CHANNELS 2 Zrotation Xrotation
					End Site
					{
						OFFSET 0.006600 -0.176220 -0.000990 
					}
				}
			}
		}
	}
	JOINT RightHip
	{
		OFFSET 0.052140 -0.069960 0.075570 
		CHANNELS 3 Zrotation Xrotation Yrotation
		JOINT RightKnee
		{
			OFFSET 0.000000 -0.402270 0.000000 
			CHANNELS 1 Zrotation
			JOINT RightAnkle
			{
				OFFSET 0.000000 -0.404085 0.000000 
				CHANNELS 3 Zrotation Xrotation Yrotation
				End Site
				{
					OFFSET 0.204105 -0.089430 0.008415 
				}
			}
		}
	}
	JOINT LeftHip
	{
		OFFSET 0.052140 -0.069960 -0.075570 
		CHANNELS 3 Zrotation Xrotation Yrotation
		JOINT LeftKnee
		{
			OFFSET 0.000000 -0.402270 0.000000 
			CHANNELS 1 Zrotation
			JOINT LeftAnkle
			{
				OFFSET 0.000000 -0.404085 0.000000 
				CHANNELS 3 Zrotation Xrotation Yrotation
				End Site
				{
					OFFSET 0.204105 -0.089430 -0.008415 
				}
			}
		}
	}
}
MOTION
Frames: 30
Frame Time: 0.02
1.52871 0.30214 -0.48031 42.37576 -58.98109 -18.0957 -11.54023 3.90681 5.7785 -31.13568 -11.42137 -2.11994 112.15927 1.37546 -85.95752 5.94192 82.87011 0.27081 -0.86193 102.73209 14.75667 -54.2806 20.99439 -80.70692 -7.96046 1.20207 84.3296 0.34243 -16.42522 -30.76821 -6.67469 -2.50648 -3.45814 82.4852 8.59398 7.4881 -30.03133 -7.03456 1.31697 2.89896
1.52963 0.30239 -0.48086 42.49245 -58.94866 -18.05911 -11.56994 3.94191 5.58168 -30.96682 -11.78134 -2.11994 112.25684 1.63867 -88.05185 5.66795 84.92496 1.1374 -0.24377 102.75006 14.8 -54.63551 21.13631 -80.70923 -8.50774 1.16213 84.199 0.30045 -16.59669 -30.7643 -6.67295 -2.51563 -3.46199 82.34734 8.64329 7.71044 -29.97254 -7.04451 1.28272 2.88338
1.5307 0.30274 -0.48155 42.63065 -58.91632 -18.03239 -11.60346 3.99776 5.39358 -30.78308 -12.15955 -2.11994 111.81964 1.8162 -86.77089 5.83552 86.85107 1.68514 0.73063 102.70969 14.83152 -54.82489 21.29779 -80.71986 -9.02109 1.18086 84.03839 0.25857 -16.80778 -30.73232 -6.66879 -2.52348 -3.46601 82.18642 8.67842 7.86538 -29.88458 -7.05427 1.25396 2.87095
1.53172 0.30304 -0.4822 42.7529 -58.8878 -18.00482 -11.62999 4.03992 5.20669 -30.59534 -12.52438 -2.11994 111.63341 2.04151 -87.15898 5.78477 88.6902 2.30283 1.49444 102.69218 14.86837 -55.06262 21.44686 -80.72916 -9.4933 1.18271 83.89514 0.22236 -16.98972 -30.71055 -6.6654 -2.53187 -3.46987 82.03966 8.72044 8.04402 -29.80906 -7.06364 1.22354 2.85755
1.53268 0.30332 -0.48279 42.90173 -58.84312 -17.96191 -11.67855 4.10011 4.99638 -30.45198 -12.91293 -2.11994 111.44262 2.23146 -87.2176 5.77709 91.17086 3.24143 2.44131 102.69084 14.90633 -55.41545 21.61198 -80.72853 -10.20071 1.14373 83.73697 0.16147 -17.21925 -30.70075 -6.66333 -2.54049 -3.47401 81.87795 8.7628 8.26093 -29.73799 -7.07524 1.18846 2.84171
1.5338 0.30368 -0.48352 43.00011 -58.83188 -17.95313 -11.68272 4.12756 4.83762 -30.21305 -13.25552 -2.11994 111.1228 2.47422 -87.06836 5.79662 92.29036 3.44315 3.10209 102.64166 14.93877 -55.4912 21.7477 -80.74997 -10.41743 1.20212 83.60187 0.15207 -17.35958 -30.65871 -6.65801 -2.54831 -3.47763 81.74102 8.80027 8.37887 -29.64998 -7.08207 1.16489 2.83189
1.53529 0.30423 -0.48456 42.95416 -58.91561 -18.03826 -11.55689 4.06086 4.81816 -29.71385 -13.46686 -2.11994 110.58272 2.88012 -87.16524 5.784 89.48113 1.57612 2.86152 102.4754 14.95918 -54.81074 21.79914 -80.8357 -9.21417 1.53292 83.54487 0.28686 -17.23455 -30.53639 -6.64363 -2.5545 -3.47986 81.68651 8.82719 8.23756 -29.52675 -7.07561 1.17094 2.83783
1.53694 0.30485 -0.48573 42.85671 -59.03265 -18.15706 -11.38735 3.96041 4.85073 -29.11916 -13.6308 -2.11994 109.92651 3.34215 -87.13412 5.78793 85.33682 -1.00302 2.32819 102.26306 14.9742 -53.86293 21.81971 -80.94238 -7.53124 1.95664 83.51087 0.47325 -17.01969 -30.38203 -6.62621 -2.55993 -3.48157 81.65629 8.84949 7.99837 -29.38653 -7.06435 1.18863 2.84979
1.53853 0.30545 -0.48686 42.78246 -59.13258 -18.25906 -11.24206 3.87439 4.86026 -28.56828 -13.81622 -2.11994 109.31565 3.78094 -87.13342 5.78821 81.93043 -3.18437 1.94758 102.07087 14.99139 -53.05685 21.8533 -81.03595 -6.11587 2.32607 83.4616 0.63474 -16.85217 -30.24103 -6.61061 -2.5655 -3.48344 81.60941 8.87387 7.80395 -29.25121 -7.0553 1.20178 2.85914
1.54004 0.30602 -0.48794 42.70932 -59.2403 -18.3676 -11.07858 3.79234 4.86732 -28.01498 -14.00324 -2.11994 108.71686 4.20854 -87.1447 5.7867 77.96986 -5.68833 1.49576 101.87887 15.00957 -52.15738 21.89238 -81.14488 -4.49115 2.74791 83.4313 0.80211 -16.65947 -30.10435 -6.59301 -2.57177 -3.48554 81.58513 8.89772 7.60509 -29.12705 -7.04604 1.21221 2.86815
1.54178 0.30666 -0.48916 42.62202 -59.34036 -18.47057 -10.94231 3.69445 4.89198 -27.44443 -14.17458 -2.11994 108.07363 4.6722 -87.13347 5.78754 74.84385 -7.68706 1.11841 101.67772 15.02433 -51.39397 21.91178 -81.2268 -3.18767 3.08257 83.36772 0.96977 -16.49619 -29.95113 -6.57895 -2.5766 -3.48713 81.52024 8.92197 7.39438 -28.97565 -7.0362 1.23068 2.87914
1.54408 0.30745 -0.49074 42.50249 -59.40553 -18.5482 -10.89407 3.55474 4.95087 -26.84822 -14.32127 -2.11994 107.32566 5.23487 -87.14997 5.7872 74.39047 -8.09789 1.01714 101.45106 15.03246 -51.04736 21.88986 -81.22761 -2.90043 3.14769 83.20361 1.12316 -16.44651 -29.7628 -6.57498 -2.57598 -3.48664 81.33399 8.94634 7.1634 -28.75612 -7.02494 1.27131 2.89514
1.54661 0.3083 -0.49246 42.37155 -59.46293 -18.6193 -10.8743 3.40134 5.02592 -26.23838 -14.45237 -2.11994 106.54175 5.82868 -87.12931 5.7872 74.82045 -7.97574 1.00051 101.21956 15.03691 -50.85218 21.84799 -81.20041 -2.95105 3.12266 83.006 1.27542 -16.42768 -29.55856 -6.57476 -2.57425 -3.48579 81.10683 8.97166 6.92615 -28.50935 -7.01343 1.31911 2.91271
1.54905 0.30913 -0.49413 42.24932 -59.52746 -18.69454 -10.84003 3.2582 5.09461 -25.63565 -14.58597 -2.11994 105.78347 6.40157 -87.13433 5.7873 74.81346 -8.11059 0.94278 100.99773 15.04235 -50.60455 21.81167 -81.18729 -2.83935 3.14265 82.8258 1.42994 -16.38738 -29.35993 -6.5731 -2.57416 -3.48563 80.90054 8.99805 6.69985 -28.27329 -7.00267 1.36176 2.92886
1.55144 0.30995 -0.49578 42.10997 -59.57771 -18.76618 -10.81084 3.09676 5.16101 -25.02529 -14.73749 -2.11994 104.98062 7.00982 -87.19515 5.78723 74.89081 -8.21573 0.88169 100.74138 15.05125 -50.27877 21.78949 -81.1705 -2.74777 3.14899 82.63691 1.57934 -16.3743 -29.16694 -6.57021 -2.5693 -3.48326 80.68509 9.01816 6.43661 -28.0437 -6.98908 1.41274 2.94818
1.55399 0.31081 -0.49749 42.00481 -59.65575 -18.8431 -10.77839 2.97073 5.23528 -24.42934 -14.84835 -2.11994 104.26479 7.54495 -87.00825 5.78726 75.04349 -8.23723 0.85712 100.55805 15.05116 -50.15477 21.7331 -81.15281 -2.70102 3.16091 82.45817 1.73793 -16.31443 -28.95891 -6.57082 -2.57405 -3.48539 80.47915 9.05135 6.24919 -27.79436 -6.98139 1.44801 2.96122
1.55691 0.31177 -0.49931 41.99247 -59.80963 -18.93806 -10.73027 2.94501 5.32751 -23.87282 -14.85297 -2.11994 103.79093 7.9255 -87.29966 5.78725 74.9763 -8.24245 0.86163 100.56387 15.03529 -50.55593 21.59101 -81.1537 -2.69573 3.21196 82.31342 1.92608 -16.10685 -28.71322 -6.58023 -2.60624 -3.50029 80.30587 9.12307 6.28144 -27.49768 -6.98993 1.43739 2.95628
1.55999 0.31277 -0.50117 42.01606 -59.99218 -19.03804 -10.67804 2.95572 5.42683 -23.33245 -14.81699 -2.11994 103.40876 8.22255 -87.18497 5.78727 74.9904 -8.16672 0.90836 100.64628 15.00882 -51.15489 21.41477 -81.15233 -2.72626 3.27106 82.18055 2.12237 -15.8541 -28.4533 -6.593 -2.64797 -3.51966 80.1443 9.2075 6.38928 -27.18212 -7.00448 1.41078 2.94497
1.56299 0.31375 -0.50301 42.0263 -60.16319 -19.13431 -10.62778 2.95042 5.52245 -22.78761 -14.79842 -2.11994 102.98878 8.51936 -86.42944 5.78724 75.12602 -8.06384 0.97397 100.70263 14.98214 -51.662 21.25158 -81.14198 -2.74258 3.32483 82.04337 2.31233 -15.62908 -28.19981 -6.60426 -2.68498 -3.53688 79.9794 9.28437 6.45699 -26.87483 -7.0164 1.39197 2.93676
1.566 0.31473 -0.50489 42.02339 -60.32737 -19.23638 -10.57819 2.94222 5.62054 -22.23014 -14.78382 -2.11994 102.54746 8.97154 -88.9261 5.78725 74.66498 -8.19557 0.89226 100.72121 14.97733 -52.18446 21.09745 -81.17105 -2.76161 3.38222 81.89964 2.51404 -15.37273 -27.94507 -6.61573 -2.72383 -3.55474 79.80398 9.36865 6.54795 -26.56757 -7.02786 1.3713 2.92781
1.56904 0.31571 -0.50668 42.05673 -60.51308 -19.32769 -10.52571 2.94899 5.71515 -21.70295 -14.75134 -2.11994 102.17747 9.0886 -84.84281 5.78735 75.40148 -7.84782 1.11305 100.83754 14.92355 -52.71751 20.91742 -81.12015 -2.77925 3.43557 81.77378 2.6924 -15.17297 -27.6908 -6.62735 -2.76084 -3.57217 79.65464 9.44071 6.60962 -26.25651 -7.04173 1.35044 2.91879
1.57212 0.3167 -0.50822 42.18082 -60.7481 -19.38699 -10.46745 2.98793 5.79697 -21.25557 -14.68091 -2.11994 101.94217 8.22287 -60.13795 5.78704 79.88598 -6.009 2.27619 101.19847 14.74472 -53.25253 20.66768 -80.82874 -2.7827 3.47266 81.68733 2.81061 -15.11911 -27.43429 -6.63993 -2.79292 -3.58856 79.56832 9.4735 6.56148 -25.93745 -7.06049 1.33445 2.91178
1.57522 0.31769 -0.50966 42.34081 -61.00463 -19.43515 -10.40612 3.04096 5.87547 -20.83771 -14.59353 -2.11994 101.78251 7.03534 -29.25657 5.78746 85.48725 -3.7255 3.72233 101.65653 14.51534 -53.78692 20.39459 -80.4604 -2.78212 3.50657 81.62071 2.90349 -15.12732 -27.18125 -6.65226 -2.82244 -3.60414 79.50979 9.49362 6.48242 -25.61641 -7.08147 1.31859 2.90482
1.5783 0.31866 -0.51113 42.48416 -61.25316 -19.4896 -10.3452 3.08757 5.95609 -20.40689 -14.51324 -2.11994 101.61538 6.04831 -2.93378 5.78732 90.26446 -1.7738 4.95854 102.07432 14.30446 -54.30671 20.13634 -80.1413 -2.78285 3.54426 81.54877 3.00429 -15.12139 -26.92993 -6.66381 -2.85147 -3.61923 79.44199 9.52161 6.42542 -25.29696 -7.10168 1.30157 2.89737
1.58142 0.31969 -0.51267 42.62809 -61.49434 -19.54058 -10.28805 3.13483 6.03348 -19.97659 -14.43479 -2.11994 101.34045 4.83675 30.61269 5.78603 96.36177 0.71873 6.52996 102.47793 14.11305 -54.8954 19.85821 -79.76367 -2.78746 3.57173 81.45841 3.12207 -15.05571 -26.6597 -6.6793 -2.8876 -3.638 79.35792 9.54269 6.34061 -24.97119 -7.12127 1.28831 2.89153
1.58447 0.32061 -0.51403 42.78144 -61.75665 -19.59417 -10.2227 3.18445 6.11784 -19.54967 -14.34817 -2.11994 101.30354 4.00822 50.80762 5.78997 99.9982 2.20175 7.48193 102.9338 13.868 -55.339 19.61744 -79.48737 -2.78226 3.62039 81.41501 3.19646 -15.12832 -26.4355 -6.68645 -2.90847 -3.64899 79.31727 9.57302 6.30118 -24.66178 -7.14238 1.26785 2.8826
1.58736 0.32129 -0.51495 42.93148 -62.06291 -19.67243 -10.13326 3.22976 6.21282 -19.14389 -14.25126 -2.11994 101.93644 4.39642 30.5768 5.78382 96.35561 0.6788 6.54659 103.50476 13.49826 -55.37081 19.47775 -79.5311 -2.75211 3.72276 81.46344 3.17269 -15.57959 -26.29156 -6.67078 -2.8855 -3.63763 79.36487 9.64892 6.43246 -24.37112 -7.16898 1.22419 2.86351
1.59016 0.32185 -0.51568 43.09438 -62.39135 -19.74987 -10.03652 3.27814 6.31678 -18.73626 -14.14583 -2.11994 102.8022 5.16667 -2.9512 5.78627 90.23994 -1.85585 4.99574 104.12597 13.07467 -55.25757 19.37879 -79.67623 -2.7114 3.84798 81.56549 3.10282 -16.16511 -26.20387 -6.64669 -2.8477 -3.61867 79.4607 9.73136 6.60445 -24.10356 -7.19665 1.17387 2.84157
1.59298 0.32244 -0.51647 43.26347 -62.71541 -19.81935 -9.94403 3.32978 6.42261 -18.3177 -14.03862 -2.11994 103.53777 5.70976 -29.01688 5.80228 85.38987 -3.85549 3.79983 104.72693 12.66807 -55.2173 19.26557 -79.75992 -2.67511 3.96587 81.66338 3.04431 -16.68251 -26.11891 -6.62631 -2.81808 -3.60382 79.54957 9.79959 6.73078 -23.84135 -7.2226 1.129 2.82208
1.59591 0.32314 -0.51736 43.37909 -63.01586 -19.92795 -9.84577 3.36235 6.50264 -17.95239 -13.95291 -2.11994 104.36997 6.46746 -60.74699 5.74948 79.96721 -6.15566 2.30536 105.31895 12.28972 -55.14796 19.1307 -79.90262 -2.642 4.06912 81.67277 3.02687 -17.23521 -25.90896 -6.60637 -2.78208 -3.58604 79.57259 9.91472 6.96485 -23.50626 -7.25387 1.07435 2.79797
